.
 
http://www.scenetime.com    -  Hottest private tracker on the net. !!!

New release on http://www.scenetime.com

        Seed back for speed


...................................NFO:.................................................








































          
          
              
              
                    
                    
                    
                    

Blackthorn.2011.V2.VODRiP.XviD-SiC

Poster:
[img]http://img16.imageshack.us/img16/7397/8qp1.jpg[/img]

IMDB Link: 
http://www.imdb.com/title/tt1629705/

Description:
In Bolivia, Butch Cassidy (now calling himself James Blackthorne) pines for one last sight of home, an adventure that aligns him with a young robber and makes the duo a target for gangs and lawmen alike.  

MediaInfo:
General
Complete name                    : Blackthorn.2011.V2.VODRiP.XviD-SiC.avi
Format                           : AVI
Format/Info                      : Audio Video Interleave
File size                        : 1.14 GiB
Duration                         : 1h 42mn
Overall bit rate                 : 1 599 Kbps
Writing application              : Nandub v1.0rc2
Writing library                  : VirtualDub build 32839/release

Video
ID                               : 0
Format                           : MPEG-4 Visual
Format profile                   : Advanced Simple@L5
Format settings, BVOP            : 1
Format settings, QPel            : No
Format settings, GMC             : No warppoints
Format settings, Matrix          : Default (H.263)
Codec ID                         : XVID
Codec ID/Hint                    : XviD
Duration                         : 1h 42mn
Bit rate                         : 1 462 Kbps
Width                            : 720 pixels
Height                           : 304 pixels
Display aspect ratio             : 2.35:1
Frame rate                       : 23.976 fps
Color space                      : YUV
Chroma subsampling               : 4:2:0
Bit depth                        : 8 bits
Scan type                        : Progressive
Compression mode                 : Lossy
Bits/(Pixel*Frame)               : 0.279
Stream size                      : 1.05 GiB (91%)
Writing library                  : XviD 1.2.1 (UTC 2008-12-04)

Audio
ID                               : 1
Format                           : MPEG Audio
Format version                   : Version 1
Format profile                   : Layer 3
Codec ID                         : 55
Codec ID/Hint                    : MP3
Duration                         : 1h 42mn
Bit rate mode                    : Constant
Bit rate                         : 128 Kbps
Channel(s)                       : 2 channels
Sampling rate                    : 44.1 KHz
Compression mode                 : Lossy
Delay relative to video          : 300ms
Stream size                      : 93.8 MiB (8%)
Alignment                        : Split accross interleaves
Interleave, duration             : 42 ms (1.00 video frame)
Interleave, preload duration     : 500 ms



Screenshots:
[img]http://img98.imageshack.us/img98/3827/vlcsnap2011090415h54m39.png[/img]
[img]http://img10.imageshack.us/img10/1371/vlcsnap2011090415h54m46.png[/img]
[img]http://img716.imageshack.us/img716/2690/vlcsnap2011090415h54m51.png[/img]
[img]http://img62.imageshack.us/img62/2972/vlcsnap2011090415h54m58.png[/img]
[img]http://img684.imageshack.us/img684/2456/vlcsnap2011090415h55m04.png[/img]


Note : Ok so here goes V2 seems the first one was out of sync, error occured about 4 times and at those 4 times about 200ms more each time. I hope I got it all good and in sync, if not then sorry I did the best I could. Hardcoded 
English subs for non-English speaking parts. 

Source: Our own

Enjoy!

Respects to CaptainHomey, Cyanide, CM8, Rx, THC, ELEKTRI4KA, 
Killerhz, PA, YeFsTe, BoxSlots, MrRep and everyone in the struggle...